<svg width="10" height="10" viewBox="0 0 10 10" fill="none" xmlns="http://www.w3.org/2000/svg">
<path d="M5 0C7.761 0 10 1.989 10 4.4445C9.9996 5.1811 9.70678 5.88742 9.18587 6.40823C8.66497 6.92904 7.9586 7.22174 7.222 7.222H6.239C5.778 7.222 5.4055 7.5945 5.4055 8.0555C5.4055 8.2665 5.489 8.461 5.6165 8.6055C5.75 8.7555 5.8335 8.95 5.8335 9.1665C5.8335 9.628 5.45 10 5 10C2.239 10 0 7.761 0 5C0 2.239 2.239 0 5 0ZM4.4055 8.0555C4.4053 7.81467 4.45259 7.57616 4.54466 7.35362C4.63674 7.13108 4.77178 6.92888 4.94208 6.75858C5.11238 6.58828 5.31458 6.45324 5.53712 6.36117C5.75966 6.26909 5.99817 6.2218 6.239 6.222H7.222C7.6933 6.22174 8.14524 6.03446 8.47859 5.7013C8.81194 5.36813 8.99947 4.9163 9 4.445C9 2.5695 7.234 1 5 1C3.96779 0.999058 2.97517 1.39718 2.22969 2.11113C1.48421 2.82507 1.04358 3.79956 0.999929 4.83085C0.956281 5.86214 1.31299 6.87038 1.99548 7.64476C2.67797 8.41915 3.6334 8.89972 4.662 8.986C4.49458 8.70464 4.40598 8.3829 4.4055 8.0555ZM2.75 5C2.55109 5 2.36032 4.92098 2.21967 4.78033C2.07902 4.63968 2 4.44891 2 4.25C2 4.05109 2.07902 3.86032 2.21967 3.71967C2.36032 3.57902 2.55109 3.5 2.75 3.5C2.94891 3.5 3.13968 3.57902 3.28033 3.71967C3.42098 3.86032 3.5 4.05109 3.5 4.25C3.5 4.44891 3.42098 4.63968 3.28033 4.78033C3.13968 4.92098 2.94891 5 2.75 5ZM7.25 5C7.05109 5 6.86032 4.92098 6.71967 4.78033C6.57902 4.63968 6.5 4.44891 6.5 4.25C6.5 4.05109 6.57902 3.86032 6.71967 3.71967C6.86032 3.57902 7.05109 3.5 7.25 3.5C7.44891 3.5 7.63968 3.57902 7.78033 3.71967C7.92098 3.86032 8 4.05109 8 4.25C8 4.44891 7.92098 4.63968 7.78033 4.78033C7.63968 4.92098 7.44891 5 7.25 5ZM5 3.5C4.80109 3.5 4.61032 3.42098 4.46967 3.28033C4.32902 3.13968 4.25 2.94891 4.25 2.75C4.25 2.55109 4.32902 2.36032 4.46967 2.21967C4.61032 2.07902 4.80109 2 5 2C5.19891 2 5.38968 2.07902 5.53033 2.21967C5.67098 2.36032 5.75 2.55109 5.75 2.75C5.75 2.94891 5.67098 3.13968 5.53033 3.28033C5.38968 3.42098 5.19891 3.5 5 3.5Z" fill="white"/>
</svg>
