<svg width="14" height="14" viewBox="0 0 14 14" fill="none" xmlns="http://www.w3.org/2000/svg">
<path d="M9.47864 8.32071C8.79791 7.7156 7.91879 7.38135 7.008 7.38135C6.0972 7.38135 5.21808 7.7156 4.53735 8.32071C4.47983 8.37048 4.43277 8.43118 4.39891 8.4993C4.36504 8.56741 4.34505 8.64157 4.34009 8.71748C4.33513 8.79338 4.3453 8.86951 4.37001 8.94145C4.39471 9.01339 4.43347 9.07971 4.48402 9.13655C4.53457 9.19338 4.59592 9.23961 4.66448 9.27254C4.73305 9.30548 4.80748 9.32446 4.88344 9.32838C4.95941 9.33231 5.0354 9.3211 5.10699 9.29542C5.17859 9.26973 5.24437 9.23007 5.30051 9.17875C5.77099 8.76061 6.37855 8.52964 7.008 8.52964C7.63744 8.52964 8.24499 8.76061 8.71547 9.17875C8.82933 9.27995 8.97873 9.33178 9.1308 9.32283C9.28287 9.31389 9.42515 9.24489 9.52635 9.13104C9.62756 9.01718 9.67938 8.86779 9.67043 8.71572C9.66149 8.56365 9.5925 8.42136 9.47864 8.32016V8.32071Z" fill="white"/>
<path d="M7.00789 5.02295C5.46618 5.02083 3.9817 5.6068 2.85711 6.66139C2.80017 6.7124 2.75398 6.77426 2.72127 6.84334C2.68855 6.91243 2.66996 6.98735 2.66658 7.06372C2.6632 7.14009 2.6751 7.21636 2.70159 7.28807C2.72807 7.35978 2.76861 7.42547 2.82082 7.48131C2.87303 7.53714 2.93587 7.58199 3.00564 7.61322C3.07541 7.64445 3.15071 7.66143 3.22714 7.66318C3.30356 7.66492 3.37956 7.65139 3.45068 7.62337C3.52181 7.59535 3.58662 7.55342 3.64132 7.50003C4.55446 6.64632 5.75783 6.1714 7.00789 6.1714C8.25794 6.1714 9.46131 6.64632 10.3744 7.50003C10.4292 7.55342 10.494 7.59535 10.5651 7.62337C10.6362 7.65139 10.7122 7.66492 10.7886 7.66318C10.8651 7.66143 10.9404 7.64445 11.0101 7.61322C11.0799 7.58199 11.1427 7.53714 11.195 7.48131C11.2472 7.42547 11.2877 7.35978 11.3142 7.28807C11.3407 7.21636 11.3526 7.14009 11.3492 7.06372C11.3458 6.98735 11.3272 6.91243 11.2945 6.84334C11.2618 6.77426 11.2156 6.7124 11.1587 6.66139C10.0341 5.6068 8.5496 5.02083 7.00789 5.02295Z" fill="white"/>
<path d="M12.6332 4.80877C11.0851 3.42746 9.08284 2.66406 7.00806 2.66406C4.93328 2.66406 2.93103 3.42746 1.3829 4.80877C1.32472 4.85847 1.27706 4.91929 1.24272 4.98768C1.20837 5.05606 1.18805 5.13061 1.18293 5.20696C1.17781 5.28331 1.188 5.35991 1.21291 5.43227C1.23781 5.50462 1.27693 5.57127 1.32795 5.62829C1.37898 5.68532 1.44089 5.73156 1.51004 5.76432C1.5792 5.79708 1.6542 5.81568 1.73065 5.81904C1.8071 5.8224 1.88344 5.81045 1.95521 5.78388C2.02697 5.75732 2.0927 5.71668 2.14853 5.66435C3.48608 4.47145 5.2157 3.81221 7.00792 3.81221C8.80015 3.81221 10.5298 4.47145 11.8673 5.66435C11.9808 5.76588 12.1301 5.81815 12.2821 5.80966C12.4342 5.80118 12.5767 5.73263 12.6782 5.6191C12.7797 5.50557 12.832 5.35636 12.8235 5.20429C12.815 5.05222 12.7465 4.90975 12.6329 4.80822L12.6332 4.80877Z" fill="white"/>
<path d="M7.00781 11.6323C7.49106 11.6323 7.88281 11.2406 7.88281 10.7573C7.88281 10.2741 7.49106 9.88232 7.00781 9.88232C6.52456 9.88232 6.13281 10.2741 6.13281 10.7573C6.13281 11.2406 6.52456 11.6323 7.00781 11.6323Z" fill="white"/>
</svg>
