<svg width="24" height="24" viewBox="0 0 24 24" fill="none" xmlns="http://www.w3.org/2000/svg">
<path d="M2 5C0.8954 5 0 5.9 0 7V21C0 22.1 0.89543 23 2 23H22C23.105 23 24 22.1 24 21V7C24 5.9 23.105 5 22 5H2Z" fill="#2980B9"/>
<path d="M3 1C1.8954 1 1 1.9 1 3V17C1 18.1 1.8954 19 3 19H14H19H21C22.105 19 23 18.1 23 17V8V5C23 3.9 22.105 3 21 3H19H14H13L10 1H3Z" fill="#2980B9"/>
<path d="M23 14V6C23 4.9 22.105 4 21 4H10H5H3C1.8954 4 1 4.9 1 6V14H23Z" fill="#BDC3C7"/>
<path d="M2 5C0.8954 5 0 5.9 0 7V13V14V20C0 21.1 0.89543 22 2 22H22C23.105 22 24 21.1 24 20V14V13V7C24 5.9 23.105 5 22 5H2Z" fill="#3498DB"/>
<path d="M17.05 7H7.95C7.43283 7 6.93684 7.20545 6.57114 7.57114C6.20545 7.93684 6 8.43283 6 8.95V15.45C6 15.9672 6.20545 16.4632 6.57114 16.8289C6.93684 17.1946 7.43283 17.4 7.95 17.4H9.9V18.7H7.95C7.77761 18.7 7.61228 18.7685 7.49038 18.8904C7.36848 19.0123 7.3 19.1776 7.3 19.35C7.3 19.5224 7.36848 19.6877 7.49038 19.8096C7.61228 19.9315 7.77761 20 7.95 20H17.05C17.2224 20 17.3877 19.9315 17.5096 19.8096C17.6315 19.6877 17.7 19.5224 17.7 19.35C17.7 19.1776 17.6315 19.0123 17.5096 18.8904C17.3877 18.7685 17.2224 18.7 17.05 18.7H15.1V17.4H17.05C17.5672 17.4 18.0632 17.1946 18.4289 16.8289C18.7946 16.4632 19 15.9672 19 15.45V8.95C19 8.43283 18.7946 7.93684 18.4289 7.57114C18.0632 7.20545 17.5672 7 17.05 7ZM13.8 18.7H11.2V17.4H13.8V18.7ZM17.7 15.45C17.7 15.6224 17.6315 15.7877 17.5096 15.9096C17.3877 16.0315 17.2224 16.1 17.05 16.1H7.95C7.77761 16.1 7.61228 16.0315 7.49038 15.9096C7.36848 15.7877 7.3 15.6224 7.3 15.45V14.8H17.7V15.45ZM17.7 13.5H7.3V8.95C7.3 8.77761 7.36848 8.61228 7.49038 8.49038C7.61228 8.36848 7.77761 8.3 7.95 8.3H17.05C17.2224 8.3 17.3877 8.36848 17.5096 8.49038C17.6315 8.61228 17.7 8.77761 17.7 8.95V13.5Z" fill="#2980B9"/>
</svg>
