<svg width="24" height="24" viewBox="0 0 24 24" fill="none" xmlns="http://www.w3.org/2000/svg">
<path d="M2 5C0.8954 5 0 5.9 0 7V21C0 22.1 0.89543 23 2 23H22C23.105 23 24 22.1 24 21V7C24 5.9 23.105 5 22 5H2Z" fill="#2980B9"/>
<path d="M3 1C1.8954 1 1 1.9 1 3V17C1 18.1 1.8954 19 3 19H14H19H21C22.105 19 23 18.1 23 17V8V5C23 3.9 22.105 3 21 3H19H14H13L10 1H3Z" fill="#2980B9"/>
<path d="M23 14V6C23 4.9 22.105 4 21 4H10H5H3C1.8954 4 1 4.9 1 6V14H23Z" fill="#BDC3C7"/>
<path d="M2 5C0.8954 5 0 5.9 0 7V13V14V20C0 21.1 0.89543 22 2 22H22C23.105 22 24 21.1 24 20V14V13V7C24 5.9 23.105 5 22 5H2Z" fill="#3498DB"/>
<path d="M9.52667 14.3385C9.46418 14.3989 9.41459 14.4708 9.38074 14.55C9.34689 14.6292 9.32947 14.7142 9.32947 14.8C9.32947 14.8858 9.34689 14.9708 9.38074 15.05C9.41459 15.1292 9.46418 15.2011 9.52667 15.2615L11.5267 17.2115C11.5886 17.2724 11.6624 17.3208 11.7436 17.3538C11.8249 17.3868 11.912 17.4038 12 17.4038C12.088 17.4038 12.1751 17.3868 12.2564 17.3538C12.3376 17.3208 12.4114 17.2724 12.4733 17.2115L14.4733 15.2615C14.5989 15.1391 14.6694 14.9731 14.6694 14.8C14.6694 14.6269 14.5989 14.4609 14.4733 14.3385C14.3478 14.2161 14.1775 14.1473 14 14.1473C13.8225 14.1473 13.6522 14.2161 13.5267 14.3385L12.6667 15.1835V7.65C12.6667 7.47761 12.5964 7.31228 12.4714 7.19038C12.3464 7.06848 12.1768 7 12 7C11.8232 7 11.6536 7.06848 11.5286 7.19038C11.4036 7.31228 11.3333 7.47761 11.3333 7.65V15.1835L10.4733 14.3385C10.4114 14.2776 10.3376 14.2292 10.2564 14.1962C10.1751 14.1632 10.088 14.1462 10 14.1462C9.91199 14.1462 9.82486 14.1632 9.74362 14.1962C9.66238 14.2292 9.58864 14.2776 9.52667 14.3385ZM16 11.55H14.6667C14.4899 11.55 14.3203 11.6185 14.1953 11.7404C14.0702 11.8623 14 12.0276 14 12.2C14 12.3724 14.0702 12.5377 14.1953 12.6596C14.3203 12.7815 14.4899 12.85 14.6667 12.85H16C16.1768 12.85 16.3464 12.9185 16.4714 13.0404C16.5964 13.1623 16.6667 13.3276 16.6667 13.5V18.05C16.6667 18.2224 16.5964 18.3877 16.4714 18.5096C16.3464 18.6315 16.1768 18.7 16 18.7H8C7.82319 18.7 7.65362 18.6315 7.5286 18.5096C7.40357 18.3877 7.33333 18.2224 7.33333 18.05V13.5C7.33333 13.3276 7.40357 13.1623 7.5286 13.0404C7.65362 12.9185 7.82319 12.85 8 12.85H9.33333C9.51014 12.85 9.67971 12.7815 9.80474 12.6596C9.92976 12.5377 10 12.3724 10 12.2C10 12.0276 9.92976 11.8623 9.80474 11.7404C9.67971 11.6185 9.51014 11.55 9.33333 11.55H8C7.46957 11.55 6.96086 11.7554 6.58579 12.1211C6.21071 12.4868 6 12.9828 6 13.5V18.05C6 18.5672 6.21071 19.0632 6.58579 19.4289C6.96086 19.7946 7.46957 20 8 20H16C16.5304 20 17.0391 19.7946 17.4142 19.4289C17.7893 19.0632 18 18.5672 18 18.05V13.5C18 12.9828 17.7893 12.4868 17.4142 12.1211C17.0391 11.7554 16.5304 11.55 16 11.55Z" fill="#2980B9"/>
</svg>
