<svg width="24" height="24" viewBox="0 0 24 24" fill="none" xmlns="http://www.w3.org/2000/svg">
<path d="M2 5C0.8954 5 0 5.9 0 7V21C0 22.1 0.89543 23 2 23H22C23.105 23 24 22.1 24 21V7C24 5.9 23.105 5 22 5H2Z" fill="#2980B9"/>
<path d="M3 1C1.8954 1 1 1.9 1 3V17C1 18.1 1.8954 19 3 19H14H19H21C22.105 19 23 18.1 23 17V8V5C23 3.9 22.105 3 21 3H19H14H13L10 1H3Z" fill="#2980B9"/>
<path d="M23 14V6C23 4.9 22.105 4 21 4H10H5H3C1.8954 4 1 4.9 1 6V14H23Z" fill="#BDC3C7"/>
<path d="M2 5C0.8954 5 0 5.9 0 7V13V14V20C0 21.1 0.89543 22 2 22H22C23.105 22 24 21.1 24 20V14V13V7C24 5.9 23.105 5 22 5H2Z" fill="#3498DB"/>
<path d="M17 11.511C16.9935 11.4513 16.9809 11.3925 16.9625 11.3355V11.277C16.9324 11.2102 16.8924 11.1487 16.8438 11.095L13.0938 7.195C13.0421 7.14444 12.983 7.10275 12.9188 7.0715H12.8625L12.6625 7H8.875C8.37772 7 7.90081 7.20545 7.54917 7.57114C7.19754 7.93684 7 8.43283 7 8.95V18.05C7 18.5672 7.19754 19.0632 7.54917 19.4289C7.90081 19.7946 8.37772 20 8.875 20H15.125C15.6223 20 16.0992 19.7946 16.4508 19.4289C16.8025 19.0632 17 18.5672 17 18.05V11.55C17 11.55 17 11.55 17 11.511ZM13.25 9.2165L14.8688 10.9H13.25V9.2165ZM15.75 18.05C15.75 18.2224 15.6842 18.3877 15.5669 18.5096C15.4497 18.6315 15.2908 18.7 15.125 18.7H8.875C8.70924 18.7 8.55027 18.6315 8.43306 18.5096C8.31585 18.3877 8.25 18.2224 8.25 18.05V8.95C8.25 8.77761 8.31585 8.61228 8.43306 8.49038C8.55027 8.36848 8.70924 8.3 8.875 8.3H12V11.55C12 11.7224 12.0658 11.8877 12.1831 12.0096C12.3003 12.1315 12.4592 12.2 12.625 12.2H15.75V18.05Z" fill="#2980B9"/>
</svg>
