<?xml version="1.0" ?><svg id="Layer_1" style="enable-background:new 0 0 128 128;" version="1.1" viewBox="0 0 128 128" xml:space="preserve" xmlns="http://www.w3.org/2000/svg" xmlns:xlink="http://www.w3.org/1999/xlink"><style type="text/css">
	.st0{fill:#725948;}
	.st1{fill:#1C4FBE;}
	.st2{fill:#EE693F;}
	.st3{fill:#FFB8CB;}
	.st4{fill:#F94003;}
	.st5{fill:#DEA740;}
	.st6{fill:#1CB6BE;}
	.st7{fill:#BCCE3E;}
	.st8{fill:#EDEFF2;}
	.st9{fill:#684E3C;}
	.st10{fill:#100F0D;}
	.st11{fill:#5B4332;}
	.st12{fill:#5C7242;}
	.st13{fill:#E1B0AF;}
	.st14{fill:#EC5527;}
	.st15{fill:#057590;}
	.st16{fill:#771C39;}
	.st17{fill:#F8A70C;}
	.st18{fill:#F06522;}
	.st19{fill:#FFFFFF;}
	.st20{fill:#CC7C2C;}
	.st21{fill:#5D6124;}
	.st22{fill:#E6AA30;}
	.st23{fill:#2AB06A;}
	.st24{fill:#1A1613;}
	.st25{fill:none;}
	.st26{fill:#EE4D4C;}
	.st27{fill:#0000FF;}
	.st28{fill:#FC4310;}
	.st29{fill:#03A551;}
	.st30{fill:#E6222A;}
	.st31{fill:#FAFCFB;}
	.st32{fill:#070707;}
	.st33{fill:#BB8B90;}
	.st34{fill:#B298E5;}
	.st35{fill:#19191B;}
</style><polygon class="st4" points="16.1,81.9 16.4,87.1 17.1,94.2 19.6,98.5 24.8,99.5 29,97.4 30.2,93 30.2,82.5 29.8,71.9 27.7,64.9   21,62.2 16.3,65.8 16.1,72 16,76 16.1,81.9 "/><polygon class="st4" points="81.2,26.1 81.8,15.8 74.7,10.2 68.1,15.5 68.6,25 67.6,35.5 74.8,41.5 81.3,35.8 81.2,26.1 "/><polygon class="st22" points="42.7,16.5 42.6,7.1 36.7,2 30.5,7.6 30.6,17.5 30.9,26.6 37.1,31.3 42.8,25.8 42.7,16.5 "/><polygon class="st15" points="66.7,69.8 66.4,59.5 61.2,53.9 55.7,60.2 56.8,70.6 57.2,79.2 63.3,83.5 67.6,78.2 66.7,69.8 "/><polygon class="st4" points="108.9,39.8 106.9,36.3 102.8,35.3 99.4,36.7 98,40 97.8,47.4 98,54.8 99.2,59.9 103.8,62.2 108.2,59.7   109.3,54.6 109.3,47.4 108.9,39.8 "/><polygon class="st4" points="96.8,101 96.3,96.9 95.1,92.5 93.8,90.4 91.3,89.4 88.4,90.3 86.8,92.9 85.1,102.7 86,112.5   87.5,116.4 91.1,118.2 94.5,116.2 95.5,112.1 96.4,106.9 96.8,101 "/><polygon class="st24" points="41.4,119.3 42.8,123.8 46.8,126 50.8,123.9 51.4,119.3 51.5,108.8 45.9,100.6 41.2,109.4 41.4,119.3   "/></svg>