<svg width="18" height="20" viewBox="0 0 18 20" fill="none" xmlns="http://www.w3.org/2000/svg">
<path fill-rule="evenodd" clip-rule="evenodd" d="M3.44443 14.6685C3.60888 14.5586 3.80222 14.5 4 14.5C4.26522 14.5 4.51957 14.6054 4.70711 14.7929C4.89464 14.9804 5 15.2348 5 15.5C5 15.6978 4.94135 15.8911 4.83147 16.0556C4.72159 16.22 4.56541 16.3482 4.38268 16.4239C4.19996 16.4996 3.99889 16.5194 3.80491 16.4808C3.61093 16.4422 3.43275 16.347 3.29289 16.2071C3.15304 16.0673 3.0578 15.8891 3.01921 15.6951C2.98063 15.5011 3.00043 15.3 3.07612 15.1173C3.15181 14.9346 3.27998 14.7784 3.44443 14.6685ZM0 4C0 1.37 4 0 8 0C12 0 16 1.37 16 4V8.49816C15.3766 8.23817 14.7039 8.0725 14 8.01894V6.73C12.1279 7.61996 10.0721 8.05511 8 8C5.92789 8.05511 3.87207 7.61996 2 6.73V10C2 10.6777 4.07732 11.8839 7.50144 11.9922C7.24086 12.6147 7.07437 13.2864 7.01975 13.9895C5.28287 13.9063 3.5763 13.4794 2 12.73V16C2 16.71 4.28 18 8 18C8.00728 18 8.01455 18 8.02181 18C8.50381 18.7528 9.13674 19.3998 9.87793 19.8981C9.26243 19.9659 8.63122 20 8 20C4 20 0 18.63 0 16V4ZM2 4C2 4.71 4.28 6 8 6C11.72 6 14 4.71 14 4C14 3.29 11.72 2 8 2C4.28 2 2 3.29 2 4ZM3.44443 8.66853C3.60888 8.55865 3.80222 8.5 4 8.5C4.26522 8.5 4.51957 8.60536 4.70711 8.79289C4.89464 8.98043 5 9.23478 5 9.5C5 9.69778 4.94135 9.89112 4.83147 10.0556C4.72159 10.22 4.56541 10.3482 4.38268 10.4239C4.19996 10.4996 3.99889 10.5194 3.80491 10.4808C3.61093 10.4422 3.43275 10.347 3.29289 10.2071C3.15304 10.0673 3.0578 9.88907 3.01921 9.69509C2.98063 9.50111 3.00043 9.30004 3.07612 9.11732C3.15181 8.93459 3.27998 8.77841 3.44443 8.66853Z" fill="#6563FF"/>
<path d="M18 11.25C18 11.0842 17.9361 10.9253 17.8225 10.8081C17.7088 10.6908 17.5547 10.625 17.3939 10.625H15.5758C15.2546 10.626 14.9468 10.758 14.7197 10.9922C14.4926 11.2264 14.3646 11.5438 14.3636 11.875V13.75C14.3636 13.9158 14.4275 14.0747 14.5411 14.1919C14.6548 14.3092 14.809 14.375 14.9697 14.375C15.1304 14.375 15.2846 14.3092 15.3982 14.1919C15.5119 14.0747 15.5758 13.9158 15.5758 13.75V12.5312C16.1652 13.2094 16.4892 14.0893 16.4848 15C16.4848 15.7417 16.2716 16.4667 15.872 17.0834C15.4724 17.7001 14.9045 18.1807 14.2401 18.4645C13.5756 18.7484 12.8445 18.8226 12.1391 18.6779C11.4337 18.5332 10.7857 18.1761 10.2772 17.6516C9.76863 17.1272 9.4223 16.459 9.28199 15.7316C9.14168 15.0042 9.2137 14.2502 9.48892 13.5649C9.76415 12.8797 10.2302 12.294 10.8282 11.882C11.4262 11.4699 12.1293 11.25 12.8485 11.25C13.0092 11.25 13.1634 11.1842 13.277 11.0669C13.3907 10.9497 13.4545 10.7908 13.4545 10.625C13.4545 10.4592 13.3907 10.3003 13.277 10.1831C13.1634 10.0658 13.0092 10 12.8485 10C11.8895 10 10.9521 10.2932 10.1548 10.8427C9.35748 11.3921 8.73604 12.173 8.36907 13.0866C8.0021 14.0002 7.90608 15.0055 8.09316 15.9754C8.28024 16.9454 8.74202 17.8363 9.42009 18.5355C10.0982 19.2348 10.9621 19.711 11.9026 19.9039C12.8431 20.0968 13.818 19.9978 14.7039 19.6194C15.5899 19.241 16.3471 18.6001 16.8799 17.7778C17.4126 16.9556 17.697 15.9889 17.697 15C17.7031 13.8634 17.3284 12.7596 16.6364 11.875H17.3939C17.5547 11.875 17.7088 11.8092 17.8225 11.6919C17.9361 11.5747 18 11.4158 18 11.25Z" fill="#6563FF"/>
</svg>
