<svg width="26" height="28" viewBox="0 0 26 28" fill="none" xmlns="http://www.w3.org/2000/svg">
<path d="M5.30279 2.78486C6.25897 2.33865 7.98008 2.56175 8.55379 3.9004C8.93626 5.01594 9.31873 6.57769 9.31873 6.35458C9.31873 5.46215 9.31873 3.67729 9.50996 2.78486C9.7012 2.11554 10.0837 1.44622 10.8486 1.22311C11.4223 1 11.996 1 12.5697 1C13.1434 1.22311 13.7171 1.66932 14.0996 2.11554C14.8645 3.45418 14.8645 6.35458 14.8645 6.13147C15.0558 5.46215 15.0558 3.45418 15.4382 2.56175C15.6295 2.11554 16.3944 1.66932 16.7769 1.44621C17.3506 1.22311 18.1155 1.22311 18.6892 1.44621C19.0717 1.44621 19.8367 2.11554 20.0279 2.56175C20.4104 3.23108 20.6016 5.46215 20.7928 6.35458C20.7928 6.57769 20.9841 5.46215 21.3665 4.79283C22.1315 3.45418 24.8088 3.00797 25 6.13147C25 7.69323 25 7.47012 25 8.58566C25 9.7012 25 10.3705 25 11.2629C25 12.1554 24.8088 14.1633 24.6175 15.0558C24.4263 15.7251 23.8526 17.2869 23.2789 18.1793C23.2789 18.1793 21.1753 20.8566 20.9841 22.1952C20.7928 23.5339 20.7928 23.5339 20.7928 24.4263C20.7928 25.3187 20.9841 26.4343 20.9841 26.4343C20.9841 26.4343 19.4542 26.6574 18.6892 26.4343C17.9243 26.2112 16.9681 24.6494 16.7769 23.9801C16.3944 23.3108 15.8207 23.3108 15.4382 23.9801C15.0558 24.8725 14.0996 26.4343 13.5259 26.4343C12.1873 26.6574 9.50996 26.4343 7.59761 26.4343C7.59761 26.4343 7.98008 24.2032 7.21514 23.3108C6.64144 22.6414 5.68526 21.5259 5.11155 20.8566L3.58167 18.8486C3.00797 17.9562 1.66932 16.8406 1.28685 14.3865C0.904382 12.3785 0.904382 11.2629 1.28685 10.3705C1.66932 9.47809 2.6255 9.03187 3.00797 9.03187C3.39044 9.03187 4.34661 9.03187 4.72908 9.25498C5.11155 9.47809 5.30279 9.70119 5.68526 10.1474C6.06773 10.8167 6.25896 11.2629 6.06773 10.3705C5.87649 9.7012 5.49402 9.03187 5.30279 8.13944C5.11155 7.24701 4.53785 6.13147 4.53785 4.79283C3.58167 4.79283 3.77291 3.45418 5.30279 2.78486Z" fill="white" stroke="black" stroke-width="1.75" stroke-linejoin="round"/>
<path d="M18.6885 19.9641V12.3785" stroke="black" stroke-width="0.75" stroke-linecap="round"/>
<path d="M14.8641 19.9641L14.6729 12.3785" stroke="black" stroke-width="0.75" stroke-linecap="round"/>
<path d="M11.0459 12.3785V19.9641" stroke="black" stroke-width="0.75" stroke-linecap="round"/>
</svg>
