<svg width="23" height="27" viewBox="0 0 23 27" fill="none" xmlns="http://www.w3.org/2000/svg">
<path d="M5.16015 20.169C4.72463 19.5303 4.28912 18.4124 3.41809 16.9753C2.98258 16.1768 1.67604 14.5799 1.24053 13.9412C0.950185 13.3024 0.950185 12.9831 1.09536 12.3443C1.24053 11.3862 2.11155 10.5877 3.12775 10.5877C3.85361 10.5877 4.57946 11.2265 5.16015 11.7056C5.45049 12.0249 5.886 12.6637 6.17635 12.9831C6.46669 13.3024 6.46669 13.4621 6.75703 13.7815C7.04737 14.2606 7.19254 14.5799 7.04737 13.9412C6.9022 13.1427 6.75703 11.8652 6.46669 10.5877C6.32152 9.62962 6.17635 9.46993 6.03117 8.83118C5.886 8.03274 5.74083 7.55367 5.59566 6.75523C5.45049 6.27617 5.30532 4.99867 5.16015 4.35992C5.01498 3.56148 5.01498 2.12429 5.59566 1.48553C6.03118 1.00647 6.9022 0.846783 7.48289 1.16616C8.20874 1.64522 8.64426 2.76304 8.78943 3.2421C9.07977 4.04054 9.37011 5.15836 9.51528 6.43586C9.80562 8.03274 10.2411 10.4281 10.2411 10.9071C10.2411 10.2684 10.096 9.15055 10.2411 8.5118C10.3863 8.03274 10.6767 7.39399 11.2573 7.2343C11.6928 7.07461 12.1284 7.07461 12.5639 7.07461C12.9994 7.2343 13.4349 7.55367 13.7252 7.87305C14.3059 8.83118 14.3059 10.9071 14.3059 10.7474C14.4511 10.1087 14.4511 8.83118 14.7414 8.19242C14.8866 7.87305 15.4673 7.55367 15.7576 7.39399C16.1932 7.2343 16.7738 7.2343 17.2094 7.39399C17.4997 7.39399 18.0804 7.87305 18.2255 8.19242C18.5159 8.67149 18.6611 10.2684 18.8062 10.9071C18.8062 11.0668 18.9514 10.2684 19.2417 9.7893C19.8224 8.83118 21.8548 8.5118 22 10.7474C22 11.8652 22 11.7056 22 12.504C22 13.3024 22 13.7815 22 14.4203C22 15.059 21.8548 16.4962 21.7097 17.1349C21.5645 17.614 21.129 18.7318 20.6935 19.3706C20.6935 19.3706 19.0966 21.2868 18.9514 22.245C18.8062 23.2031 18.8062 23.2031 18.8062 23.8418C18.8062 24.4806 18.9514 25.279 18.9514 25.279C18.9514 25.279 17.79 25.4387 17.2094 25.279C16.6287 25.1193 15.9028 24.0015 15.7576 23.5225C15.4673 23.0434 15.0318 23.0434 14.7414 23.5225C14.4511 24.1612 13.7252 25.279 13.1446 25.279C12.1284 25.4387 10.096 25.279 8.64426 25.279C8.64426 25.279 8.9346 23.6821 8.35391 23.0434C7.9184 22.5643 7.19254 21.7659 6.75703 21.2868L5.16015 20.169Z" fill="white" stroke="black" stroke-width="1.75" stroke-linecap="round" stroke-linejoin="round"/>
<path d="M17.208 20.6481V15.2187" stroke="black" stroke-width="0.75" stroke-linecap="round"/>
<path d="M14.3053 20.6481L14.1602 15.2187" stroke="black" stroke-width="0.75" stroke-linecap="round"/>
<path d="M11.4004 15.2187V20.6481" stroke="black" stroke-width="0.75" stroke-linecap="round"/>
</svg>
