<svg width="19" height="19" viewBox="0 0 19 19" fill="none" xmlns="http://www.w3.org/2000/svg">
<path fill-rule="evenodd" clip-rule="evenodd" d="M9.5 1.1875C4.90957 1.1875 1.1875 5.00234 1.1875 9.71152C1.1875 13.4781 3.56992 16.6695 6.87266 17.7977C7.28828 17.8756 7.44043 17.6121 7.44043 17.3857C7.44043 17.1816 7.43301 16.6473 7.4293 15.9348C5.11738 16.4506 4.62754 14.7918 4.62754 14.7918C4.24902 13.8084 3.70352 13.5449 3.70352 13.5449C2.9502 13.0143 3.75918 13.0254 3.75918 13.0254C4.59414 13.0848 5.03203 13.9049 5.03203 13.9049C5.77422 15.2074 6.97656 14.8326 7.45156 14.6137C7.52578 14.0645 7.74102 13.6859 7.97852 13.4744C6.13418 13.2592 4.19336 12.5281 4.19336 9.2625C4.19336 8.33105 4.51621 7.57031 5.04688 6.97656C4.96152 6.76133 4.67578 5.89297 5.12852 4.72031C5.12852 4.72031 5.82617 4.49023 7.41445 5.59238C8.07871 5.40312 8.7875 5.31035 9.49629 5.30664C10.2014 5.31035 10.9139 5.40312 11.5781 5.59238C13.1664 4.49023 13.8604 4.72031 13.8604 4.72031C14.3131 5.89297 14.0273 6.76133 13.942 6.97656C14.4727 7.57402 14.7955 8.33477 14.7955 9.2625C14.7955 12.5355 12.851 13.2555 10.9992 13.467C11.2961 13.7305 11.5633 14.25 11.5633 15.0441C11.5633 16.1834 11.5521 17.1037 11.5521 17.382C11.5521 17.6084 11.7006 17.8756 12.1236 17.7902C15.4338 16.6658 17.8125 13.4744 17.8125 9.71152C17.8125 5.00234 14.0904 1.1875 9.5 1.1875Z" fill="white"/>
</svg>
