<svg width="19" height="19" viewBox="0 0 19 19" fill="none" xmlns="http://www.w3.org/2000/svg">
<path d="M10.0783 8.51848V8.49268C10.0729 8.50139 10.0672 8.5101 10.0615 8.51848H10.0783Z" fill="white"/>
<path d="M16.5105 1H2.39449C1.71885 1 1.1709 1.53488 1.1709 2.1941V16.4753C1.1709 17.1342 1.71885 17.6691 2.39449 17.6691H16.5105C17.1872 17.6691 17.7351 17.1339 17.7351 16.4753V2.1941C17.7351 1.53455 17.1868 1 16.5105 1ZM6.19161 14.9542H3.6898V7.42728H6.19161V14.9542ZM4.94087 6.39908H4.92411C4.08493 6.39908 3.542 5.82097 3.542 5.09874C3.542 4.36043 4.10168 3.79841 4.95729 3.79841C5.81324 3.79841 6.33974 4.36043 6.35649 5.09874C6.35649 5.82097 5.8129 6.39908 4.94087 6.39908ZM15.2132 14.9542H12.7114V10.9265C12.7114 9.91502 12.3494 9.22463 11.4442 9.22463C10.7532 9.22463 10.3416 9.69014 10.1603 10.1399C10.0943 10.3004 10.0782 10.525 10.0782 10.7502V14.9538H7.5764C7.5764 14.9538 7.60924 8.13241 7.5764 7.42695H10.0782V8.49235C10.4107 7.97959 11.0052 7.24932 12.3334 7.24932C13.9792 7.24932 15.2135 8.32545 15.2135 10.6376L15.2132 14.9542Z" fill="white"/>
</svg>
