<svg width="14" height="14" viewBox="0 0 14 14" fill="none" xmlns="http://www.w3.org/2000/svg">
<path fill-rule="evenodd" clip-rule="evenodd" d="M6.55166 3.71931C6.90323 4.10903 6.79176 4.55054 6.4809 4.96946C6.4072 5.06879 6.32225 5.16665 6.21964 5.27449C6.17039 5.32625 6.13199 5.36517 6.05166 5.44558C5.86924 5.62818 5.71589 5.78162 5.5916 5.90589C5.53133 5.96616 5.94282 6.78844 6.74142 7.58782C7.53958 8.38677 8.36182 8.79855 8.42237 8.73796L8.88212 8.27796C9.1353 8.02453 9.26938 7.90226 9.45362 7.78139C9.83663 7.53011 10.2544 7.46182 10.6068 7.77689C11.7572 8.5998 12.4082 9.10479 12.7271 9.43618C13.3492 10.0826 13.2677 11.0775 12.7307 11.6451C12.5445 11.8419 12.3083 12.0782 12.0295 12.347C10.3425 14.0349 6.78233 13.0077 4.05383 10.2765C1.3247 7.54472 0.298082 3.98418 1.98147 2.29989C2.28369 1.99292 2.38333 1.89333 2.67767 1.60331C3.22566 1.06335 4.26652 0.978806 4.89926 1.60385C5.23208 1.93262 5.76269 2.61532 6.55166 3.71931ZM9.73027 9.1264L9.27043 9.58649C8.48881 10.3685 7.15768 9.70192 5.89318 8.43617C4.6278 7.16955 3.96192 5.83892 4.74381 5.0571C4.86793 4.93299 5.02113 4.7797 5.20342 4.59723C5.27697 4.52361 5.31061 4.48951 5.35099 4.44707C5.40601 4.38925 5.45122 4.33846 5.48742 4.29352C4.7882 3.31952 4.31288 2.71091 4.05664 2.45778C3.9243 2.32706 3.62799 2.35113 3.5192 2.45832C3.22907 2.74419 3.13371 2.83951 2.83271 3.14521C1.75012 4.2284 2.57888 7.10271 4.90207 9.42819C7.22453 11.7529 10.0984 12.5821 11.1892 11.4908C11.4638 11.226 11.6875 11.0022 11.8597 10.8202C11.9841 10.6886 12.0064 10.4173 11.8632 10.2685C11.6248 10.0208 11.0412 9.56576 10.0334 8.84204C9.95991 8.90117 9.86961 8.98692 9.73027 9.1264Z" fill="white"/>
</svg>
