<?xml version="1.0" standalone="no"?>
<!DOCTYPE svg PUBLIC "-//W3C//DTD SVG 20010904//EN"
 "http://www.w3.org/TR/2001/REC-SVG-20010904/DTD/svg10.dtd">
<svg version="1.0" xmlns="http://www.w3.org/2000/svg"
 width="280.000000pt" height="280.000000pt" viewBox="0 0 280.000000 280.000000"
 preserveAspectRatio="xMidYMid meet">
<metadata>
Created by potrace 1.10, written by Peter Selinger 2001-2011
</metadata>
<g transform="translate(0.000000,280.000000) scale(0.100000,-0.100000)"
fill="#000000" stroke="none">
<path d="M599 2001 l500 -599 -487 -584 c-268 -321 -493 -592 -501 -601 -13
-16 7 -17 286 -17 l300 0 500 601 501 601 -476 572 c-263 314 -487 584 -498
599 l-22 27 -301 0 -301 0 499 -599z m113 522 c33 -36 284 -333 393 -468 28
-34 158 -191 290 -349 132 -158 241 -295 242 -304 1 -10 -202 -261 -475 -587
l-477 -570 -248 -3 c-161 -1 -248 1 -245 8 1 5 208 255 458 556 250 300 461
557 468 571 12 21 11 29 -6 58 -11 18 -221 274 -466 568 -245 294 -446 540
-446 546 0 8 71 11 238 11 l238 0 36 -37z"/>
<path d="M2090 2593 c0 -5 -15 -24 -33 -43 -17 -19 -49 -56 -70 -82 -21 -26
-43 -53 -50 -60 -7 -7 -29 -34 -50 -60 -21 -26 -43 -53 -50 -60 -7 -7 -29 -34
-50 -60 -21 -26 -43 -53 -50 -60 -7 -7 -29 -34 -50 -60 -21 -26 -43 -53 -50
-60 -7 -7 -29 -34 -50 -60 -21 -26 -43 -53 -50 -60 -43 -46 -46 -37 90 -201
71 -85 139 -167 151 -183 19 -25 23 -27 32 -13 14 24 815 986 858 1032 l36 37
-307 0 c-169 0 -307 -3 -307 -7z m530 -32 c0 -8 -114 -148 -508 -622 -268
-321 -301 -359 -316 -359 -10 0 -85 85 -220 252 l-38 48 24 32 c14 18 54 67
89 109 35 41 80 95 99 119 37 47 91 112 100 120 3 3 48 57 100 120 52 63 110
132 129 153 l34 37 254 0 c139 0 253 -4 253 -9z"/>
<path d="M1777 1258 c-8 -13 -23 -32 -33 -43 -11 -11 -36 -41 -57 -67 -21 -26
-43 -53 -50 -60 -7 -7 -29 -34 -50 -60 -21 -26 -43 -53 -50 -60 -43 -46 -58
-24 262 -407 l301 -361 301 0 301 0 -33 38 c-36 41 -47 54 -119 142 -25 30
-61 73 -80 96 -19 22 -62 73 -95 114 -33 40 -78 94 -100 120 -22 26 -67 80
-100 120 -33 40 -78 94 -100 120 -44 51 -58 69 -125 150 -25 30 -57 68 -73 85
-15 16 -37 45 -50 62 -26 39 -30 40 -50 11z m40 -45 c17 -16 181 -210 243
-289 21 -27 117 -142 270 -324 237 -281 290 -347 290 -357 0 -17 -22 -18 -277
-15 l-232 3 -253 303 c-139 166 -267 320 -285 342 -32 38 -32 39 -15 66 16 25
232 288 237 288 1 0 11 -8 22 -17z"/>
</g>
</svg>
