<?xml version="1.0" ?><svg fill="none" height="24" viewBox="0 0 24 24" width="24" xmlns="http://www.w3.org/2000/svg"><path clip-rule="evenodd" d="M10 4C10.5523 4 11 4.44772 11 5V10C11 10.5523 10.5523 11 10 11H5C4.44772 11 4 10.5523 4 10C4 9.44772 4.44772 9 5 9H9V5C9 4.44772 9.44772 4 10 4ZM14 4C14.5523 4 15 4.44772 15 5V9H19C19.5523 9 20 9.44772 20 10C20 10.5523 19.5523 11 19 11H14C13.4477 11 13 10.5523 13 10V5C13 4.44772 13.4477 4 14 4ZM4 14C4 13.4477 4.44772 13 5 13H10C10.5523 13 11 13.4477 11 14V19C11 19.5523 10.5523 20 10 20C9.44772 20 9 19.5523 9 19V15H5C4.44772 15 4 14.5523 4 14ZM13 14C13 13.4477 13.4477 13 14 13H19C19.5523 13 20 13.4477 20 14C20 14.5523 19.5523 15 19 15H15V19C15 19.5523 14.5523 20 14 20C13.4477 20 13 19.5523 13 19V14Z" fill="black" fill-rule="evenodd"/></svg>