<?xml version="1.0" ?><svg fill="none" height="24" viewBox="0 0 24 24" width="24" xmlns="http://www.w3.org/2000/svg"><path clip-rule="evenodd" d="M5 6L9 6C9.55228 6 10 5.55228 10 5C10 4.44772 9.55228 4 9 4L4 4C3.73478 4 3.48043 4.10536 3.29289 4.29289C3.10536 4.48043 3 4.73478 3 5L3 10C3 10.5523 3.44772 11 4 11C4.55229 11 5 10.5523 5 10L5 6ZM14 5C14 4.44772 14.4477 4 15 4L20 4C20.5523 4 21 4.44772 21 5V10C21 10.5523 20.5523 11 20 11C19.4477 11 19 10.5523 19 10V6L15 6C14.4477 6 14 5.55228 14 5ZM4 13C4.55229 13 5 13.4477 5 14L5 18H9C9.55228 18 10 18.4477 10 19C10 19.5523 9.55228 20 9 20H4C3.73478 20 3.48043 19.8946 3.29289 19.7071C3.10536 19.5196 3 19.2652 3 19L3 14C3 13.4477 3.44772 13 4 13ZM20 13C20.5523 13 21 13.4477 21 14V19C21 19.5523 20.5523 20 20 20H15C14.4477 20 14 19.5523 14 19C14 18.4477 14.4477 18 15 18H19V14C19 13.4477 19.4477 13 20 13Z" fill="black" fill-rule="evenodd"/></svg>