<svg width="226" height="113" viewBox="0 0 226 113" fill="none" xmlns="http://www.w3.org/2000/svg">
<path d="M147.303 67.8H84.346C82.9546 67.8 81.6201 67.2047 80.6363 66.1452C79.6524 65.0856 79.0996 63.6485 79.0996 62.15C79.0996 60.6515 79.6524 59.2144 80.6363 58.1548C81.6201 57.0953 82.9546 56.5 84.346 56.5H147.303C148.695 56.5 150.029 57.0953 151.013 58.1548C151.997 59.2144 152.55 60.6515 152.55 62.15C152.55 63.6485 151.997 65.0856 151.013 66.1452C150.029 67.2047 148.695 67.8 147.303 67.8Z" fill="white"/>
<path d="M84.7496 67.8C83.2511 67.8 81.814 67.2048 80.7545 66.1452C79.6949 65.0856 79.0996 63.6485 79.0996 62.15V45.2C79.0996 43.7016 79.6949 42.2645 80.7545 41.2049C81.814 40.1453 83.2511 39.55 84.7496 39.55C86.2481 39.55 87.6852 40.1453 88.7448 41.2049C89.8043 42.2645 90.3996 43.7016 90.3996 45.2V62.15C90.3996 63.6485 89.8043 65.0856 88.7448 66.1452C87.6852 67.2048 86.2481 67.8 84.7496 67.8Z" fill="white"/>
<path d="M107.35 67.8C105.852 67.8 104.415 67.2048 103.355 66.1452C102.295 65.0856 101.7 63.6485 101.7 62.15V45.2C101.7 43.7016 102.295 42.2645 103.355 41.2049C104.415 40.1453 105.852 39.55 107.35 39.55C108.849 39.55 110.286 40.1453 111.345 41.2049C112.405 42.2645 113 43.7016 113 45.2V62.15C113 63.6485 112.405 65.0856 111.345 66.1452C110.286 67.2048 108.849 67.8 107.35 67.8Z" fill="white"/>
<path d="M129.95 67.8C128.451 67.8 127.014 67.2048 125.955 66.1452C124.895 65.0856 124.3 63.6485 124.3 62.15V45.2C124.3 43.7016 124.895 42.2645 125.955 41.2049C127.014 40.1453 128.451 39.55 129.95 39.55C131.448 39.55 132.885 40.1453 133.945 41.2049C135.005 42.2645 135.6 43.7016 135.6 45.2V62.15C135.6 63.6485 135.005 65.0856 133.945 66.1452C132.885 67.2048 131.448 67.8 129.95 67.8Z" fill="white"/>
<path d="M118.673 93.2577C117.929 93.262 117.192 93.1195 116.504 92.8383C115.815 92.5572 115.189 92.1429 114.661 91.6192L110.198 87.0992L105.734 91.6192C105.208 92.146 104.582 92.5639 103.894 92.849C103.206 93.1341 102.468 93.2808 101.723 93.2808C100.978 93.2808 100.24 93.1341 99.5519 92.849C98.8636 92.5639 98.2382 92.146 97.7114 91.6192C97.1846 91.0924 96.7667 90.467 96.4816 89.7787C96.1965 89.0904 96.0498 88.3527 96.0498 87.6077C96.0498 86.8627 96.1965 86.125 96.4816 85.4367C96.7667 84.7484 97.1846 84.123 97.7114 83.5962L106.186 75.1212C106.712 74.5916 107.337 74.1713 108.025 73.8845C108.714 73.5976 109.452 73.45 110.198 73.45C110.944 73.45 111.682 73.5976 112.371 73.8845C113.059 74.1713 113.684 74.5916 114.209 75.1212L122.684 83.5962C123.214 84.1215 123.634 84.7463 123.921 85.4349C124.208 86.1234 124.356 86.8618 124.356 87.6077C124.356 88.3536 124.208 89.0921 123.921 89.7806C123.634 90.4691 123.214 91.094 122.684 91.6192C122.156 92.1429 121.53 92.5572 120.842 92.8383C120.154 93.1195 119.416 93.262 118.673 93.2577Z" fill="white"/>
<path d="M108.701 30.6596L110.353 31.6708L111.892 30.4938C121.769 22.9383 132.622 22.4008 140.924 26.572C149.231 30.746 155.375 39.8338 155.375 52.3805C155.375 77.926 135.086 98.539 110.175 98.539C85.2645 98.539 64.9754 77.926 64.9754 52.3805C64.9754 39.5604 70.0013 30.5908 77.5021 26.5321C85.0025 22.4736 95.902 22.827 108.701 30.6596Z" stroke="white" stroke-width="5.65"/>
<path d="M108.819 22.4058C110.472 24.8229 111.201 26.9904 111.394 28.5793C111.492 29.3779 111.449 29.9924 111.35 30.4052C111.302 30.6088 111.249 30.7295 111.213 30.795C111.207 30.7956 111.2 30.7962 111.192 30.7968C111.033 30.809 110.787 30.8008 110.451 30.7468C109.783 30.6394 108.898 30.3729 107.912 29.9156C105.938 29.0005 103.717 27.396 102.125 25.0676C100.533 22.7393 99.8448 20.0871 99.7087 17.9159C99.6407 16.8309 99.7136 15.9096 99.8561 15.2478C99.9059 15.017 99.9606 14.8341 100.012 14.6958C100.123 14.7281 100.261 14.7762 100.428 14.8459C101.081 15.1183 101.953 15.6271 102.942 16.3541C104.914 17.8038 107.16 19.9777 108.819 22.4058ZM99.7134 14.6377C99.7132 14.6374 99.7179 14.6371 99.7282 14.6376C99.7188 14.6382 99.7136 14.638 99.7134 14.6377Z" fill="white" stroke="white" stroke-width="2.825"/>
<path d="M113.283 16.8279C110.495 19.7668 108.193 23.0691 106.771 25.7672C106.056 27.1233 105.594 28.2704 105.386 29.107C105.311 29.4068 105.279 29.6327 105.269 29.7925C105.497 29.8375 105.836 29.8641 106.286 29.8459C107.2 29.8089 108.423 29.594 109.817 29.1481C112.604 28.2566 115.905 26.4953 118.591 23.665C121.276 20.8347 122.862 17.4459 123.606 14.6161C123.979 13.2006 124.129 11.9671 124.118 11.0529C124.112 10.594 124.067 10.2536 124.008 10.0276C123.997 9.9845 123.986 9.94921 123.977 9.92082C123.886 9.90754 123.71 9.89808 123.409 9.94266C122.803 10.0326 121.947 10.313 120.884 10.8507C118.772 11.9196 116.07 13.8905 113.283 16.8279ZM105.276 30.0275C105.276 30.0273 105.275 30.0241 105.274 30.0182C105.275 30.0247 105.275 30.0276 105.276 30.0275Z" fill="white" stroke="white" stroke-width="2.825"/>
<path d="M111.877 25.6209C111.877 27.1811 111.735 28.2498 110.175 28.2498C108.614 28.2498 107.35 26.985 107.35 25.4248C107.35 23.8646 107.492 22.7959 109.052 22.7959C110.612 22.7959 111.877 24.0607 111.877 25.6209Z" fill="white"/>
</svg>
