<svg width="19" height="19" viewBox="0 0 19 19" fill="none" xmlns="http://www.w3.org/2000/svg">
<path d="M9.5 16.625C13.435 16.625 16.625 13.435 16.625 9.5C16.625 5.56497 13.435 2.375 9.5 2.375C5.56497 2.375 2.375 5.56497 2.375 9.5C2.375 13.435 5.56497 16.625 9.5 16.625Z" stroke="white" stroke-width="2" stroke-linecap="round" stroke-linejoin="round"/>
<path d="M6.33333 3.16666V4.74999C6.33333 5.62444 7.04222 6.33332 7.91667 6.33332H8.70833C9.58281 6.33332 10.2917 7.04221 10.2917 7.91666C10.2917 8.79113 11.0005 9.49999 11.875 9.49999C12.7495 9.49999 13.4583 8.79113 13.4583 7.91666C13.4583 7.04221 14.1672 6.33332 15.0417 6.33332H15.8333M15.8333 12.6667H13.4583C12.5839 12.6667 11.875 13.3755 11.875 14.25V15.8333M8.70833 15.8333V14.25C8.70833 13.3755 7.99947 12.6667 7.125 12.6667C6.25055 12.6667 5.54167 11.9578 5.54167 11.0833C5.54167 10.2088 4.83278 9.49999 3.95833 9.49999H2.375" stroke="white" stroke-width="2" stroke-linecap="round" stroke-linejoin="round"/>
</svg>
